Patient4_TMGait_0pt5_02_left_04_EMG.mot
version=1
nRows=37
nColumns=33
inDegrees=no
endheader
time	1LAddLong	2LGlutMax	3LGlutMed	4LIliopsoas	5LSemiMemb	6LBicFemLong	7LRecFem	8LVastMed	9LVastLat	10LGasMed	11LTibAnt	12lTibPost	13LPeroneusLong	14LSol	15LExtDigLong	16LFlexDigLong	17RAddLong	18RGlutMax	19RGlutMed	20RIliopsoas	21RSemiMemb	22RBicFemLong	23RRecFem	24RVastMed	25RVastLat	26RGasMed	27RTibAnt	28RTibPost	29RPeroneusLong	30RSol	31RExtDigLong	32RFlexDigLong
4.902	0.025787	1.0561	0.062561	0.009308	0.15076	0.019836	0.34378	0.043182	-0.23254	-0.37598	0.021057	0.007629	-0.37048	0.39673	-0.055847	0.007935	0.022278	-0.13519	-0.036163	0.011444	-0.04364	0.022125	0.31494	-0.18723	0.047913	0	-0.88959	-0.002747	0.17685	-0.031281	0.000458	-0.003357
4.903	0.002594	1.0991	0.19211	0.003052	0.049744	0.16312	0.39078	0.037079	-0.27649	-0.44205	0.0177	-0.001373	0.40649	0.37247	0.000153	0.031128	0.0354	-0.09964	0.032959	0.045776	-0.062561	-0.028229	0.30273	-0.21439	0.052032	-0.002747	-0.87204	-0.005035	0.092316	-0.002747	-0.00061	0.002289
4.904	0.001831	1.1646	0.34546	0.005341	-0.035553	0.22614	0.37125	0.029907	-0.26535	-0.327	0.024109	-0.007782	0.61966	0.028687	0.024872	0.020294	-0.000916	-0.10483	0.048065	0.054474	-0.084839	-0.013428	0.31616	-0.19012	0.068054	-0.000153	-0.26398	-0.001221	0.008087	0.00351	0.000458	-0.005188
4.905	0.001678	1.1115	0.22873	0.003815	-0.032959	0.21164	0.27618	0.032959	-0.23438	-0.21881	0.027466	-0.010986	0.47638	-0.19959	0.027161	-0.031586	-0.064545	-0.10117	0.004883	0.01236	-0.10834	0.029602	0.31708	-0.16388	0.074005	0.000916	-0.03067	-0.001831	-0.023346	0.025635	0.002289	-0.000763
4.906	0.008698	0.99121	0.10223	0.007477	-0.057678	0.19806	0.15152	0.017242	-0.11139	-0.13962	0.06134	-0.007935	-0.30579	-0.25238	0.034027	-0.066223	-0.084076	-0.16159	0.038605	-0.046082	-0.091705	0.11185	0.42984	-0.15762	0.050659	-0.006104	-0.007629	-0.003662	-0.019836	0.031738	-0.000458	-0.002289
4.907	0.06485	0.8931	0.021057	0.005035	-0.08667	0.19211	0.15671	0.009308	-0.011292	0.18738	0.045929	0.12512	-0.46646	0.121	0.070343	-0.055237	-0.083466	-0.17685	0.073395	-0.11154	-0.055237	0.13733	0.43594	-0.13412	0.039825	-0.001984	0.10819	-0.001831	-0.03006	0.018616	-0.00061	-0.008392
4.908	0.059662	0.88623	0.026093	0.012817	-0.1059	0.050507	0.22766	-0.011444	-0.008545	0.31525	-0.009308	0.19775	0.34409	0.2327	0.016174	0.002594	-0.091705	-0.082703	0.015717	-0.04837	-0.014496	0.11078	0.44495	-0.15472	0.04303	-0.001221	0.16632	-0.008392	-0.02243	0.009003	-0.002441	-0.007782
4.909	-0.042725	0.88409	-0.014648	0.01236	-0.12802	0.00824	0.19043	-0.014954	-0.091553	0.49423	-0.019379	-0.075836	0.058289	0.28946	-0.12085	0.076141	-0.085449	-0.11749	-0.11566	-0.008545	-0.037231	0.049286	0.46967	-0.12131	0.027313	0.004883	0.19363	-0.007324	-0.00412	-0.023346	-0.007935	-0.010681
4.91	0.013275	0.8635	-0.077057	0.011902	-0.087738	0.16876	0.16861	-0.006714	-0.048981	0.54153	-0.000458	-0.17105	-0.62164	0.017242	-0.20752	0.046844	-0.071106	-0.18341	-0.070038	-0.11093	-0.037384	0.02655	0.47852	-0.10132	0.02533	-0.000305	0.26276	0.002289	-0.045929	-0.011444	-0.000153	-0.011139
4.911	0.001068	0.86456	-0.13321	0.012817	-0.038757	0.37659	0.1535	0.006866	0.068512	0.70282	0.00946	-0.070496	-0.50323	-0.005493	-0.16892	0.02243	-0.058899	-0.16815	0.046387	-0.16357	-0.080566	0.02655	0.50354	-0.094299	0.00885	0.00061	0.45151	-0.00473	-0.11078	-0.00351	-0.002594	-0.009766
4.912	0.004425	0.77072	-0.15228	0.010986	0.001526	0.33218	0.11017	0.001984	0.077667	0.34134	-0.010071	-0.022125	-0.12573	-0.33905	-0.093384	-0.014496	-0.070648	-0.11154	0.012207	-0.1413	-0.096741	0.1471	0.49164	-0.064087	0.006561	-0.007019	0.63187	-0.000916	-0.14008	0.045624	-0.003052	-0.020447
4.913	0.009766	0.74829	-0.067902	0.010223	0.053558	0.177	0.13473	-0.003357	0.048523	0.08728	-0.00946	0.10574	0.35843	-0.63721	-0.010986	-0.015717	-0.02533	-0.070953	0.001373	-0.060425	-0.083466	0.15823	0.43427	-0.048981	0.002136	-0.011139	0.57465	-0.006409	-0.051727	0.035095	-0.002136	-0.010986
4.914	0.014801	0.75653	0.050049	0.005035	0.050049	-0.20981	0.091705	-0.002899	0.074768	0.00885	0.003815	0.11139	0.21698	-0.17517	0.07431	-0.026398	0.040436	-0.13229	0.033264	-0.023804	-0.034943	0.23041	0.40909	-0.083008	0.017242	-0.003052	0.23453	-0.010681	0.11673	-0.060577	-0.007019	-0.007935
4.915	0.035858	0.7457	-0.002289	0.008392	0.019684	-0.1915	-0.008392	0.001373	0.092621	-0.084991	-0.001221	0.045471	0.2858	-0.053711	0.063171	0.00885	0.074615	-0.12024	0.069275	0.019531	0.017395	0.31555	0.38162	-0.11017	0.006409	-0.001373	-0.14542	-0.002594	0.082245	-0.14847	-0.000153	-0.007935
4.916	0.041962	0.70831	-0.11047	-0.000305	-0.002747	-0.2124	-0.13657	0.005035	0.064697	0.2562	0.000916	-0.10635	0.18173	-0.043182	0.005493	0.018005	0.10819	-0.18143	0.034485	0.026093	0.026245	0.12772	0.41306	-0.11108	0.014648	-0.008392	-0.066833	-0.002747	0.01236	-0.17853	-0.001984	-0.004578
4.917	0.053711	0.69961	-0.13031	0.010071	0.018768	-0.35172	-0.26993	-0.006104	0.027008	-0.20599	0.004272	-0.055389	0.03006	0.11292	-0.004883	-0.12482	0.13275	-0.1944	0.04776	0.098114	0.02594	0.024719	0.4628	-0.068817	0.014038	-0.002441	-0.092468	0.000153	0.006561	-0.23758	-0.002289	-0.007477
4.918	0.052185	0.69672	-0.092621	-0.000153	0.034485	-0.19318	-0.36438	-0.008392	0.028992	-0.71045	0.009308	0.58319	-0.02121	0.31967	-0.010223	-0.1564	0.15472	-0.21194	0.050507	0.15015	0.017853	0.01358	0.43854	-0.001221	0.006256	-0.000153	-0.23361	0.004578	0.087433	-0.21591	-0.00061	-0.005951
4.919	0.03891	0.74493	-0.074768	0.012054	0.058899	-0.091705	-0.45853	-0.024719	0.029144	-0.28046	0.014648	-0.55008	-0.018921	0.39291	-0.035095	-1.1273	0.1532	-0.15686	0.040283	0.2298	0.02182	-0.025177	0.40527	0.037231	0.019226	0.00061	-0.36224	-0.002136	0.10544	-0.093231	-0.001068	-0.000305
4.92	0.03418	0.77331	-0.14069	0.015106	0.008392	-0.064545	-0.52261	-0.013123	0.005341	-0.12482	0.027466	-0.19302	0.068359	0.054932	-0.012054	0.72006	0.15457	-0.16739	0.016022	0.31433	0.005951	-0.12802	0.37354	0.022278	0.016022	-0.001831	-0.60684	-0.002594	0.068817	-0.0177	-0.002136	-0.001831
4.921	0.023651	0.83923	-0.25818	0.003662	-0.03891	-0.071259	-0.59967	-0.014801	0.025635	-0.13062	0.020905	0.025024	0.10468	-0.083618	0.042572	0.33478	0.13977	-0.1622	-0.060577	0.33203	-0.0383	-0.12787	0.36819	-0.094604	0.005493	0.007935	-0.48096	-0.00351	0.14771	-0.029297	-0.002899	-0.001831
4.922	0.029449	0.91538	-0.20477	-0.002136	-0.037842	-0.069885	-0.66788	-0.002289	0.06958	-0.15549	0.023499	0.033264	0.1181	0.010376	0.056152	0.16983	0.13016	-0.27725	-0.01297	0.20035	-0.080566	-0.084076	0.37827	-0.057373	-0.019531	0.003357	-0.20218	0.00885	0.1387	0.001068	-0.00061	-0.004425
4.923	0.027313	0.97168	-0.089569	0.024109	0.012207	-0.068054	-0.72067	0.002136	0.077057	-0.22293	0.008392	-0.002899	0.024719	0.020294	0.033722	0.13336	0.055847	-0.31723	0.074158	0.10468	-0.10223	-0.058594	0.35477	-0.055237	-0.027924	0.002289	0.12543	-0.00412	0.10223	0.085602	-0.003815	-0.001984
4.924	0.02594	1.0777	0.048065	0.023804	0.045471	0.010986	-0.76004	0.003967	0.121	-0.12726	0.027924	0.010834	-0.28259	0.034637	0.013275	0.063782	-0.005798	-0.32135	0.12039	-0.037994	-0.1445	-0.045471	0.29434	-0.097198	-0.008545	-0.001373	-0.062103	-0.004578	0.063019	0.16998	-0.000153	0.002441
4.925	0.012054	1.1505	-0.018768	0.013733	-0.0177	0.11231	-0.78888	0.006256	0.15991	-0.20966	0.018768	-0.006104	-0.31693	-0.20508	0.031281	0.093689	-0.02655	-0.35477	0.13412	-0.053558	-0.16602	-0.067596	0.29862	-0.11383	0.00351	-0.001831	-0.21591	-0.000305	0.053558	0.159	-0.001984	-0.001526
4.926	0.012665	1.2172	-0.019989	-0.002594	-0.05661	0.2034	-0.77118	0.005035	0.16556	-0.14908	0.013275	-0.025177	-0.24185	-0.039978	0.039215	0.085297	-0.063171	-0.37247	0.02594	-0.058899	-0.079803	-0.000458	0.28885	-0.050354	0.01709	0.001221	-0.27023	0.001984	0.030365	0.25131	-0.00061	-0.000916
4.927	0.015564	1.169	-0.13473	0.006561	-0.072021	0.27512	-0.75104	0.019531	0.18463	0.16556	0.007019	-0.13092	-0.1828	-0.095062	0.033264	0.008087	-0.084076	-0.42755	0.035706	-0.055084	-0.02533	0.028992	0.30624	0.023956	0.014648	-0.011597	-0.17029	-0.003052	-0.098877	0.14145	-0.001831	-0.001526
4.928	0.01236	1.1166	-0.04715	0.016174	-0.087891	0.27756	-0.78796	0.019226	0.12955	0.32257	-0.009308	0.32928	-0.022888	0.012207	0.033417	0.02121	-0.08728	-0.43335	0.064392	-0.085449	-0.046387	0.067139	0.26947	-0.000305	0.020447	-0.008087	0.2243	-0.000305	-0.17288	0.032349	-0.00061	-0.002136
4.929	0.006561	0.98816	0.015411	0.017395	-0.10986	0.21149	-0.67413	0.018158	-0.095978	0.26154	-0.006104	0.2214	0.1358	0.21118	-0.00061	0.002441	-0.014191	-0.44937	0.15411	-0.10162	-0.052185	0.07431	0.24033	-0.041809	0.037384	-0.007782	0.48004	-0.001526	-0.14679	-0.017548	-0.001221	-0.003204
4.93	-0.003052	0.90775	0.1593	-0.012054	-0.046234	0.26047	-0.63004	0.015564	-0.29877	0.18234	0.004578	-0.057373	0.16769	-0.42465	-0.076294	-0.08316	-0.008545	-0.4538	0.062408	-0.10635	-0.028687	0.080566	0.22659	-0.084381	0.011444	-0.001373	0.54688	-0.007782	-0.004272	-0.080109	0.000305	-0.00885
4.931	0.004883	0.78033	0.12985	-0.012817	-0.05188	0.271	-0.55939	0.012207	-0.23789	0.47882	0.020905	-0.24796	0.45837	-0.66391	-0.044861	0.068665	0.019379	-0.50156	0.1088	-0.14618	-0.022888	0.032043	0.22507	-0.041351	0.014191	-0.002899	0.35278	-0.002594	0.1619	-0.048218	0.000305	-0.009155
4.932	-0.003662	0.62546	0.073547	-0.002594	-0.103	0.15915	-0.5574	-0.002747	-0.11292	0.21133	0.006409	0.19241	0.35355	-0.44159	-0.015259	0.11749	0.022583	-0.52368	0.11017	-0.082703	-0.001373	0.084076	0.20813	0.016937	0.028839	0.003815	-0.76462	0	0.26825	-0.061188	-0.002136	-0.010071
4.933	-0.001678	0.54413	0.088654	-0.007935	-0.077515	0.035553	-0.51987	-0.007782	-0.12665	-0.13367	-0.005798	0.11597	0.052032	-0.015869	0.005951	-0.003357	0.007935	-0.56427	0.12421	0.050964	0.052643	0.17136	0.21759	0.009308	0.042419	0.005493	-0.88592	-0.00412	0.19531	-0.10269	0	-0.005798
4.934	-0.000916	0.28427	0.034332	0.011139	0.04364	-0.20523	-0.44952	-0.004578	0.001984	-0.20462	-0.000763	-0.20859	-0.20554	-0.025787	0.003967	-0.25772	0.032043	-0.52643	0.20142	0.11429	0.058441	0.20401	0.26535	0.001984	0.029449	0.004578	0.17136	-0.003357	0.11215	-0.083466	-0.000916	-0.005341
4.935	-0.003204	0.081787	-0.008545	0.032501	0.068054	-0.41245	-0.34424	-0.001068	0.28839	-0.14862	0.013885	-0.025177	0.000916	0.029907	-0.018921	-0.11185	0.050812	-0.55603	0.19806	-0.001678	0.030365	0.17639	0.28885	0.029602	0.027924	0.009918	0.3746	-0.00412	0.13641	-0.087128	-0.004578	-0.001373
4.936	-0.011292	-0.067139	-0.034027	0.023956	-0.007019	-0.42862	-0.28259	0.009613	0.49789	-0.10452	0.006714	-0.023346	0.18417	0.094757	-0.049286	0.057526	-0.000153	-0.62653	0.088959	-0.02121	0.031433	0.15533	0.30029	0.003662	0.013733	0.00946	0.12985	-0.003815	0.041199	0.023804	-0.005341	-0.001984
4.937	-0.010986	-0.14618	0.13336	0.014191	-0.023041	-0.36682	-0.23743	0.014496	0.3714	-0.086365	0.013275	-0.040741	-0.055237	0.021667	0.002441	0.018616	-0.070801	-0.52094	0.15457	-0.053711	0.009766	0.15747	0.29236	0.034637	-0.004425	-0.004425	-0.26749	-0.006256	0.023956	0.1622	-0.00351	-0.004425
4.938	-0.003815	-0.24704	0.20035	0.002899	0.003052	-0.15961	-0.22995	0.022888	0.15213	-0.084076	0.016327	-0.050812	-0.11826	0.046082	0.020142	-0.038147	-0.059509	-0.46738	0.31677	-0.13489	0.009613	0.093842	0.30868	-0.070343	-0.019531	-0.009003	-0.37567	-0.00946	0.064392	0.24521	-0.003357	-0.010376
